<svg width="1450" height="460" viewBox="0 0 1450 460" fill="none" xmlns="http://www.w3.org/2000/svg">
<path d="M1289.32 453.2H1328.85L1364.51 370.573L1400.15 453.2H1449.73L1399.83 351.12L1449.73 248.72H1410.19L1374.55 331.36L1338.91 248.72H1289.32L1339.55 351.12L1289.32 453.2ZM1183.6 458.387C1234.8 458.387 1263.64 425.333 1263.64 362.147V249.054H1218.6V367C1218.6 403.627 1205.96 419.507 1183.6 419.507C1161.24 419.507 1148.6 403.627 1148.6 367V249.054H1103.56V362.147C1103.56 425.333 1132.08 458.387 1183.6 458.387ZM959.741 349.507C959.741 309.64 973.676 286.64 998.628 286.64C1023.26 286.64 1036.87 309.64 1036.87 349.507C1036.87 390.987 1023.26 415.294 998.628 415.294C973.676 415.294 959.741 390.987 959.741 349.507ZM998.628 459.36C1047.88 459.36 1078.67 417.88 1078.67 351.454C1078.67 285.347 1047.88 243.867 998.628 243.867C949.048 243.867 918.263 285.347 918.263 351.454C918.263 417.88 949.048 459.36 998.628 459.36ZM787.233 367V287.613H806.028C837.137 287.613 851.72 303.494 851.72 333.627C851.72 384.174 806.028 390.987 787.233 367ZM742.513 453.2H787.233V383.213C833.248 425.333 894.819 396.814 894.819 328.12C894.819 272.054 862.737 249.054 799.547 249.054H742.513V453.2ZM677.235 395.107C696.808 395.107 711.411 380.507 711.411 361.24C711.411 341.973 696.808 327.067 677.235 327.067C657.661 327.067 643.059 341.973 643.059 361.24C643.059 380.507 657.661 395.107 677.235 395.107ZM567.949 453.2H612.669V249.054H567.949V453.2ZM441.957 453.2H486.677V293.773H539.821V249.054H388.813V293.773H441.957V453.2ZM201.892 453.2H247.908C247.908 347.88 244.992 328.76 238.187 299.28L314.663 453.2H361.651V249.054H315.635C315.635 353.72 318.876 373.814 325.681 405.894L247.26 249.054H201.892V453.2ZM62.8148 383.854L75.4534 333.627C79.3414 314.827 81.2868 299.6 82.5828 285.347H90.3601C91.6561 299.6 93.2761 314.827 97.1654 333.627L109.803 383.854H62.8148ZM0.273438 453.2H45.3161L60.5468 393.254H112.395L127.625 453.2H172.669L119.2 249.054H53.4174L0.273438 453.2ZM1350.11 210.4H1394.83V50.9604H1447.97V6.24007H1296.97V50.9604H1350.11V210.4ZM1193.69 215.587C1244.89 215.587 1273.73 182.534 1273.73 119.334V6.24007H1228.69V124.2C1228.69 160.814 1216.05 176.694 1193.69 176.694C1171.33 176.694 1158.69 160.814 1158.69 124.2V6.24007H1113.65V119.334C1113.65 182.534 1142.17 215.587 1193.69 215.587ZM992.472 210.4H1037.19V50.9604H1090.33V6.24007H939.327V50.9604H992.472V210.4ZM863.568 210.4H908.288V6.24007H863.568V210.4ZM734.132 210.4H778.852V50.9604H831.996V6.24007H680.988V50.9604H734.132V210.4ZM516.588 152.067V204.56C581.723 221.094 666.624 228.867 666.624 157.573C666.624 89.5201 560.011 114.147 553.853 69.7604C550.937 50.307 566.168 39.2937 584.963 39.2937C599.221 39.2937 623.525 44.4805 622.229 82.0671L661.116 75.9067C663.708 47.0667 654.959 28.9204 642.644 18.227C625.469 2.68038 600.193 0.733816 585.611 0.733816C549.641 0.733816 513.995 18.2267 513.995 60.0401C513.671 134.24 625.793 108.974 625.793 149.8C625.793 188.68 558.067 174.427 516.588 152.067ZM325.292 210.4H371.307C371.307 105.08 368.391 85.9605 361.585 56.4671L438.063 210.4H485.051V6.24007H439.035C439.035 110.907 442.275 131 449.08 163.08L370.659 6.24007H325.292V210.4ZM240.493 210.4H285.213V6.24007H240.493V210.4ZM25.4148 210.4H148.879V165.027H70.1348V6.24007H25.4148V210.4ZM199.163 23.3604C199.163 32.7604 181.8 78.6937 181.8 78.6937H171.908C171.908 78.6937 154.544 35.6804 154.544 23.3604C154.544 11.0404 164.532 1.05361 176.853 1.05361C189.175 1.05361 199.163 11.0404 199.163 23.3604Z" fill="#040606"/>
</svg>
