<svg width="1314" height="538" viewBox="0 0 1314 538" fill="none" xmlns="http://www.w3.org/2000/svg">
<path d="M1210.36 3.42685H103.644C48.7845 3.42685 4.3125 47.8935 4.3125 102.76V434.667C4.3125 489.533 48.7845 534 103.644 534H1210.36C1265.21 534 1309.69 489.533 1309.69 434.667V102.76C1309.69 47.8935 1265.21 3.42685 1210.36 3.42685Z" fill="white"/>
<path d="M103.643 6.75986C50.7095 6.75986 7.64421 49.8265 7.64421 102.76V434.666C7.64421 487.613 50.7095 530.666 103.643 530.666H1210.36C1263.29 530.666 1306.36 487.613 1306.36 434.666V102.76C1306.36 49.8265 1263.29 6.75986 1210.36 6.75986H103.643ZM1210.36 537.333H103.643C47.0335 537.333 0.977539 491.28 0.977539 434.666V102.76C0.977539 46.1465 47.0335 0.0931961 103.643 0.0931961H1210.36C1266.97 0.0931961 1313.03 46.1465 1313.03 102.76V434.666C1313.03 491.28 1266.97 537.333 1210.36 537.333Z" fill="#040606"/>
<path d="M293.992 126.027C293.992 132.52 282.005 164.227 282.005 164.227H275.176C275.176 164.227 263.19 134.533 263.19 126.027C263.19 117.533 270.085 110.627 278.59 110.627C287.096 110.627 293.992 117.533 293.992 126.027Z" fill="#040606"/>
<path d="M174.047 114.213H204.918V223.827H259.279V255.146H174.047V114.213Z" fill="#040606"/>
<path d="M322.523 114.213H353.395V255.146H322.523V114.213Z" fill="#040606"/>
<path d="M381.064 114.213H412.384L466.522 222.48C461.823 200.333 459.586 186.466 459.586 114.213H491.352V255.146H458.915L406.12 148.88C410.818 169.24 412.831 182.44 412.831 255.146H381.064V114.213Z" fill="#040606"/>
<path d="M588.513 213.32C588.513 185.133 511.11 202.573 511.334 151.347C511.334 122.493 535.942 110.413 560.773 110.413C570.84 110.413 588.289 111.747 600.147 122.493C608.647 129.867 614.687 142.4 612.897 162.307L586.052 166.56C586.948 140.613 570.169 137.027 560.327 137.027C547.352 137.027 536.837 144.64 538.85 158.053C543.101 188.707 616.701 171.707 616.701 218.68C616.701 267.893 558.089 262.533 513.124 251.12V214.88C541.759 230.32 588.513 240.16 588.513 213.32Z" fill="#040606"/>
<path d="M663.304 145.08H626.616V114.213H730.864V145.08H694.176V255.146H663.304V145.08Z" fill="#040606"/>
<path d="M752.66 114.213H783.532V255.146H752.66V114.213Z" fill="#040606"/>
<path d="M841.647 145.08H804.959V114.213H909.207V145.08H872.519V255.146H841.647V145.08Z" fill="#040606"/>
<path d="M925.304 192.28V114.213H956.4V195.64C956.4 220.92 965.124 231.88 980.56 231.88C996 231.88 1004.72 220.92 1004.72 195.64V114.213H1035.81V192.28C1035.81 235.907 1015.91 258.733 980.56 258.733C944.99 258.733 925.304 235.907 925.304 192.28Z" fill="#040606"/>
<path d="M1088.55 145.08H1051.85V114.213H1156.11V145.08H1119.41V255.146H1088.55V145.08Z" fill="#040606"/>
<path d="M232.303 374.893L223.579 340.213C220.893 327.24 219.775 316.733 218.88 306.893H213.512C212.617 316.733 211.275 327.24 208.589 340.213L199.865 374.893H232.303ZM193.377 281.827H238.791L275.703 422.773H244.607L234.092 381.387H198.3L187.785 422.773H156.689L193.377 281.827Z" fill="#040606"/>
<path d="M295.876 281.827H327.196L381.333 390.107C376.635 367.96 374.397 354.093 374.397 281.827H406.164V422.773H373.727L320.932 316.507C325.629 336.867 327.643 350.067 327.643 422.773H295.876V281.827Z" fill="#040606"/>
<path d="M461.604 312.707H424.916V281.827H529.164V312.707H492.476V422.773H461.604V312.707Z" fill="#040606"/>
<path d="M548.581 281.827H579.453V422.773H548.581V281.827Z" fill="#040606"/>
<path d="M600.432 359.28C600.432 345.987 610.513 335.693 624.025 335.693C637.538 335.693 647.618 345.987 647.618 359.28C647.618 372.573 637.538 382.653 624.025 382.653C610.513 382.653 600.432 372.573 600.432 359.28Z" fill="#040606"/>
<path d="M744.48 340.213C744.48 319.413 734.413 308.453 712.937 308.453H699.963V363.267C712.937 379.813 744.48 375.12 744.48 340.213ZM669.091 281.827H708.463C752.085 281.827 774.233 297.72 774.233 336.413C774.233 383.84 731.728 403.533 699.963 374.453V422.773H669.091V281.827Z" fill="#040606"/>
<path d="M845.897 396.6C862.898 396.6 872.294 379.813 872.294 351.187C872.294 323.667 862.898 307.787 845.897 307.787C828.672 307.787 819.052 323.667 819.052 351.187C819.052 379.813 828.672 396.6 845.897 396.6ZM790.417 352.52C790.417 306.893 811.669 278.253 845.897 278.253C879.901 278.253 901.153 306.893 901.153 352.52C901.153 398.387 879.901 427.013 845.897 427.013C811.669 427.013 790.417 398.387 790.417 352.52Z" fill="#040606"/>
<path d="M918.334 359.907V281.827H949.431V363.267C949.431 388.547 958.154 399.507 973.59 399.507C989.026 399.507 997.746 388.547 997.746 363.267V281.827H1028.84V359.907C1028.84 403.534 1008.93 426.347 973.59 426.347C938.021 426.347 918.334 403.534 918.334 359.907Z" fill="#040606"/>
<path d="M1081.25 352.293L1046.57 281.613H1080.8L1105.41 338.653L1130.01 281.613H1157.31L1122.85 352.293L1157.31 422.773H1123.08L1098.48 365.72L1073.87 422.773H1046.57L1081.25 352.293Z" fill="#040606"/>
</svg>
