<svg width="636" height="604" viewBox="0 0 636 604" fill="none" xmlns="http://www.w3.org/2000/svg">
<path d="M558.746 3.59987H76.5866C36.2399 3.59987 3.5332 36.3066 3.5332 76.64V526.787C3.5332 567.12 36.2399 599.827 76.5866 599.827H558.746C599.093 599.827 631.8 567.12 631.8 526.787V76.64C631.8 36.3066 599.093 3.59987 558.746 3.59987Z" fill="white"/>
<path d="M76.5869 6.93337C38.1469 6.93337 6.86686 38.2001 6.86686 76.6401V526.787C6.86686 565.227 38.1469 596.493 76.5869 596.493H558.747C597.187 596.493 628.467 565.227 628.467 526.787V76.6401C628.467 38.2001 597.187 6.93337 558.747 6.93337H76.5869ZM558.747 603.16H76.5869C34.4669 603.16 0.200195 568.893 0.200195 526.787V76.6401C0.200195 34.5335 34.4669 0.266703 76.5869 0.266703H558.747C600.867 0.266703 635.134 34.5335 635.134 76.6401V526.787C635.134 568.893 600.867 603.16 558.747 603.16Z" fill="#040606"/>
<path d="M301.587 173.387C301.587 173.387 316.747 133.267 316.747 125.067C316.747 114.307 308.027 105.587 297.267 105.587C286.507 105.587 277.773 114.307 277.773 125.067C277.773 135.827 292.947 173.387 292.947 173.387H301.587Z" fill="#040606"/>
<path d="M292.56 250.68H223.786V111.987H184.72V290.307H292.56V250.68Z" fill="#040606"/>
<path d="M221.106 437.28L232.146 393.4C235.546 376.986 237.24 363.68 238.373 351.227H245.159C246.293 363.68 247.706 376.986 251.106 393.4L262.146 437.28H221.106ZM212.893 319.533L166.479 497.84H205.826L219.12 445.48H264.413L277.706 497.84H317.053L270.359 319.533H212.893Z" fill="#040606"/>
<path d="M374.88 422.56V353.213H391.306C418.466 353.213 431.213 367.08 431.213 393.4C431.213 437.56 391.306 443.507 374.88 422.56ZM385.64 319.533H335.826V497.84H374.88V436.707C415.08 473.507 468.853 448.6 468.853 388.586C468.853 339.626 440.826 319.533 385.64 319.533Z" fill="#040606"/>
<path d="M410.227 290.307H437.147V250.68H410.227V151.613H437.147V111.987H410.227H371.16H344.24V151.613H371.16V250.68H344.24V290.307H371.16H410.227Z" fill="#040606"/>
</svg>
